<?xml version="1.0" encoding="UTF-8" standalone="no"?>
<!-- Created with Inkscape (http://www.inkscape.org/) -->

<svg
   width="160.00005mm"
   height="50mm"
   viewBox="0 0 160.00005 50"
   version="1.1"
   id="svg5"
   xml:space="preserve"
   xmlns="http://www.w3.org/2000/svg"
   xmlns:svg="http://www.w3.org/2000/svg"><defs
     id="defs2" /><g
     id="g2618"
     transform="translate(-225.62723,-22.211206)"><path
       id="path1317"
       style="fill:#1488ca;fill-opacity:1;fill-rule:evenodd;stroke:none;stroke-width:0.264583px;stroke-linecap:butt;stroke-linejoin:miter;stroke-opacity:1"
       d="m 230.89099,29.172538 c -3.98419,0 -5.2123,3.894839 -5.26376,7.279142 v 25.759668 c 0,5.539989 4.45991,9.999907 9.9999,9.999907 h 140.00024 c 5.53999,0 9.99991,-4.459918 9.99991,-9.999907 V 36.45168 c -0.0515,-3.384303 -1.27957,-7.279142 -5.26376,-7.279142 -3.98418,0 -4.50175,7.279142 -12.45609,7.279142 -7.95414,0 -8.4719,-7.279142 -12.45609,-7.279142 -3.98418,0 -4.50175,7.279142 -12.45608,7.279142 -7.95434,0 -8.4719,-7.279142 -12.45609,-7.279142 -3.98419,0 -4.50195,7.279142 -12.45609,7.279142 -7.95433,0 -8.47189,-7.279142 -12.45609,-7.279142 -3.98417,0 -4.50194,7.279142 -12.45608,7.279142 -7.95435,0 -8.4719,-7.279142 -12.45609,-7.279142 -3.98419,0 -4.50194,7.279142 -12.45609,7.279142 -7.95434,0 -8.47138,-7.279142 -12.45557,-7.279142 -3.98419,0 -4.50194,7.279142 -12.45609,7.279142 -7.95433,0 -8.4719,-7.279142 -12.45608,-7.279142 z" /><g
       id="g2607"
       transform="translate(0.90289978)"><g
         id="g2485"
         transform="matrix(1.2625909,0,0,1.2605877,103.428,-169.68489)"
         style="stroke-width:0.792651"><path
           id="path2481"
           style="fill:#ffcd1c;fill-rule:evenodd;stroke:#000000;stroke-width:0.396326;stroke-linecap:butt;stroke-linejoin:miter;stroke-dasharray:none;stroke-opacity:1"
           d="m 110.95206,158.97754 v 1.54306 c -1.77871,0.77474 -3.19815,2.19418 -3.97289,3.97289 h -1.54305 v 6.12365 h 1.54305 c 0.64629,1.48434 1.74527,2.72638 3.13986,3.54862 0.0389,1.01288 0.003,2.71094 -0.59686,3.48351 -1.33067,1.71272 -8.12734,0.31287 -6.05234,2.38797 l 10.54406,10.54458 10.54457,-10.54458 c 2.07505,-2.07505 -4.72167,-0.67525 -6.05234,-2.38797 -0.60025,-0.77257 -0.63613,-2.47063 -0.59738,-3.48351 1.39459,-0.82224 2.49357,-2.06428 3.13986,-3.54862 h 1.54306 v -6.12365 h -1.53789 c -0.77491,-1.78159 -2.19646,-3.20314 -3.97805,-3.97806 v -1.53789 z" /><circle
           style="color:#000000;overflow:visible;fill:#ffffff;stroke:#000000;stroke-width:0.396326;stroke-linecap:butt;stroke-dasharray:none;stroke-opacity:1;stop-color:#000000"
           id="circle2483"
           cx="114.01395"
           cy="167.55557"
           r="4.1131458" /></g><text
         xml:space="preserve"
         style="color:#000000;font-weight:bold;font-size:23.506px;line-height:20.731px;font-family:'Inria Sans';-inkscape-font-specification:'Inria Sans Bold';text-decoration:none;text-decoration-line:none;text-decoration-color:#000000;letter-spacing:0px;word-spacing:0px;overflow:visible;fill:#ffcd1c;stroke:none;stroke-width:0.2;stroke-linecap:round;stroke-dasharray:none;stop-color:#000000"
         x="265.4111"
         y="59.943268"
         id="text2493"><tspan
           id="tspan2491"
           style="font-style:normal;font-variant:normal;font-weight:bold;font-stretch:normal;font-size:23.506px;font-family:'Inria Sans';-inkscape-font-specification:'Inria Sans Bold';fill:#ffcd1c;stroke:none;stroke-width:0.2;stroke-dasharray:none"
           x="265.4111"
           y="59.943268">Hydronaut</tspan></text></g></g></svg>
